<svg width="214" height="215" viewBox="0 0 214 192" fill="none" xmlns="http://www.w3.org/2000/svg">
<path d="M3.27219 161L90 12L156.772 128.5H120.272L90 75.5L22.7722 191C14.4857 191.079 10.3691 189.692 4.77219 182.5C-2.72781 172.5 3.27219 161 3.27219 161Z" fill="#A82200" stroke="#A82200" stroke-width="0.2"/>
<path d="M210.5 158.5L126.012 12.5C125.012 10.5 120.512 5.5 120.512 5.5C117.012 1 107.512 1 107.512 1C94.5119 1 90.0119 12 90.0119 12L156 128.5H93.95L77 158.5H210.5Z" fill="#E5581D" stroke="#E5581D" stroke-width="0.2"/>
<path d="M22.77 191L90 75L107 105.5L77 158.5H210.5C214.436 164.798 214.459 169.097 212.5 178C207.618 185.876 204.354 189.042 196 191H22.77Z" fill="#C73E0F" stroke="#C73E0F" stroke-width="0.2"/>
</svg>
